<?xml version="1.0" encoding="UTF-8"?>
<svg id="Capa_1" xmlns="http://www.w3.org/2000/svg" version="1.1" viewBox="0 0 42 52.5">
  <!-- Generator: Adobe Illustrator 30.5.1, SVG Export Plug-In . SVG Version: 2.1.4 Build 3)  -->
  <path d="M10.5,42h21v-5.25H10.5v5.25ZM10.5,31.5h21v-5.25H10.5v5.25ZM5.25,52.5c-1.44,0-2.68-.51-3.71-1.54-1.03-1.03-1.54-2.26-1.54-3.71V5.25c0-1.44.51-2.68,1.54-3.71C2.57.51,3.81,0,5.25,0h21l15.75,15.75v31.5c0,1.44-.51,2.68-1.54,3.71-1.03,1.03-2.26,1.54-3.71,1.54H5.25ZM23.62,18.38h13.12l-13.12-13.12v13.12Z"/>
</svg>